<mxfile host="app.diagrams.net" modified="2024-07-08T18:42:10.840Z" agent="Mozilla/5.0 (X11; Linux x86_64; rv:109.0) Gecko/20100101 Firefox/115.0" etag="l6Ds1kG48lfCL7jKK3jQ" version="24.6.4" type="device">
  <diagram name="Page-1" id="NU-SdLu3wrM1XWiGg_Hs">
    <mxGraphModel dx="1434" dy="802" grid="1" gridSize="10" guides="1" tooltips="1" connect="1" arrows="1" fold="1" page="1" pageScale="1" pageWidth="850" pageHeight="1100" math="0" shadow="0">
      <root>
        <mxCell id="0" />
        <mxCell id="1" parent="0" />
        <mxCell id="0WRzadt97zoSKVtm6kNQ-2" value="&lt;font face=&quot;Courier New&quot;&gt;ldp     &lt;font color=&quot;#e5a50a&quot;&gt;x14&lt;/font&gt;, &lt;font color=&quot;#e5a50a&quot;&gt;x15&lt;/font&gt;, [&lt;font color=&quot;#e5a50a&quot;&gt;x4&lt;/font&gt;, #&lt;font color=&quot;#1a5fb4&quot;&gt;-0x40&lt;/font&gt;]&lt;br&gt;stp     &lt;font color=&quot;#e5a50a&quot;&gt;x6&lt;/font&gt;, &lt;font color=&quot;#e5a50a&quot;&gt;x7&lt;/font&gt;, [&lt;font color=&quot;#e5a50a&quot;&gt;x3&lt;/font&gt;, #&lt;font color=&quot;#1a5fb4&quot;&gt;0x10&lt;/font&gt;]&lt;br&gt;ldp     &lt;font color=&quot;#e5a50a&quot;&gt;x6&lt;/font&gt;, &lt;font color=&quot;#e5a50a&quot;&gt;x7&lt;/font&gt;, [&lt;font color=&quot;#e5a50a&quot;&gt;x4&lt;/font&gt;, #&lt;font color=&quot;#1a5fb4&quot;&gt;-0x30&lt;/font&gt;]&lt;br&gt;stp     &lt;font color=&quot;#e5a50a&quot;&gt;x8&lt;/font&gt;, &lt;font color=&quot;#e5a50a&quot;&gt;x9&lt;/font&gt;, [&lt;font color=&quot;#e5a50a&quot;&gt;x3&lt;/font&gt;, #&lt;font color=&quot;#1a5fb4&quot;&gt;0x20&lt;/font&gt;]&lt;br&gt;ldp     &lt;font color=&quot;#e5a50a&quot;&gt;x8&lt;/font&gt;, &lt;font color=&quot;#e5a50a&quot;&gt;x9&lt;/font&gt;, [&lt;font color=&quot;#e5a50a&quot;&gt;x4&lt;/font&gt;, #&lt;font color=&quot;#1a5fb4&quot;&gt;-0x20&lt;/font&gt;]&lt;br&gt;stp     &lt;font color=&quot;#e5a50a&quot;&gt;x10&lt;/font&gt;, &lt;font color=&quot;#e5a50a&quot;&gt;x11&lt;/font&gt;, [&lt;font color=&quot;#e5a50a&quot;&gt;x3&lt;/font&gt;, #&lt;font color=&quot;#1a5fb4&quot;&gt;0x30&lt;/font&gt;]&lt;br&gt;ldp     &lt;font color=&quot;#e5a50a&quot;&gt;x10&lt;/font&gt;, &lt;font color=&quot;#e5a50a&quot;&gt;x11&lt;/font&gt;, [&lt;font color=&quot;#e5a50a&quot;&gt;x4&lt;/font&gt;, #&lt;font color=&quot;#1a5fb4&quot;&gt;-0x10&lt;/font&gt;]&lt;br&gt;stp     &lt;font color=&quot;#e5a50a&quot;&gt;x12&lt;/font&gt;, &lt;font color=&quot;#e5a50a&quot;&gt;x13&lt;/font&gt;, [&lt;font color=&quot;#e5a50a&quot;&gt;x3&lt;/font&gt;, #&lt;font color=&quot;#1a5fb4&quot;&gt;0x40&lt;/font&gt;]&lt;br&gt;stp     &lt;font color=&quot;#e5a50a&quot;&gt;x14&lt;/font&gt;, &lt;font color=&quot;#e5a50a&quot;&gt;x15&lt;/font&gt;, [&lt;font color=&quot;#e5a50a&quot;&gt;x5&lt;/font&gt;, #&lt;font color=&quot;#1a5fb4&quot;&gt;-0x40&lt;/font&gt;]&lt;br&gt;stp     &lt;font color=&quot;#e5a50a&quot;&gt;x6&lt;/font&gt;, &lt;font color=&quot;#e5a50a&quot;&gt;x7&lt;/font&gt;, [&lt;font color=&quot;#e5a50a&quot;&gt;x5&lt;/font&gt;, #&lt;font color=&quot;#1a5fb4&quot;&gt;-0x30&lt;/font&gt;]&lt;br&gt;stp     &lt;font color=&quot;#e5a50a&quot;&gt;x8&lt;/font&gt;, &lt;font color=&quot;#e5a50a&quot;&gt;x9&lt;/font&gt;, [&lt;font color=&quot;#e5a50a&quot;&gt;x5&lt;/font&gt;, #&lt;font color=&quot;#1a5fb4&quot;&gt;-0x20&lt;/font&gt;]&lt;br&gt;stp     &lt;font color=&quot;#e5a50a&quot;&gt;x10&lt;/font&gt;, &lt;font color=&quot;#e5a50a&quot;&gt;x11&lt;/font&gt;, [&lt;font color=&quot;#e5a50a&quot;&gt;x5&lt;/font&gt;, #&lt;font color=&quot;#1a5fb4&quot;&gt;-0x10&lt;/font&gt;]&lt;/font&gt;" style="text;html=1;align=left;verticalAlign=middle;whiteSpace=wrap;rounded=0;strokeColor=none;" vertex="1" parent="1">
          <mxGeometry x="280" y="80" width="190" height="190" as="geometry" />
        </mxCell>
        <mxCell id="0WRzadt97zoSKVtm6kNQ-4" value="&lt;font style=&quot;font-size: 25px;&quot; face=&quot;Helvetica&quot;&gt;REVERSING memcpy() AGAIN&lt;/font&gt;" style="text;html=1;align=center;verticalAlign=middle;whiteSpace=wrap;rounded=0;" vertex="1" parent="1">
          <mxGeometry x="200" y="290" width="360" height="40" as="geometry" />
        </mxCell>
      </root>
    </mxGraphModel>
  </diagram>
</mxfile>
